<svg width="611" height="75" viewBox="0 0 611 75" fill="none" xmlns="http://www.w3.org/2000/svg">
<g clip-path="url(#clip0_6_2)">
<rect width="611" height="75" fill="white"/>
<path d="M134.48 22.3C129.62 22.3 125.42 21.49 121.88 19.87L119 34.45H136.37C136.37 37.63 135.56 40.24 133.94 42.28C132.38 44.26 130.16 45.25 127.28 45.25C124.16 45.25 121.16 44.68 118.28 43.54C117.68 43.3 117.35 43.15 117.29 43.09L112.16 70H92.54L103.97 10.6H144.11C144.11 14.26 143.24 17.14 141.5 19.24C139.82 21.28 137.48 22.3 134.48 22.3ZM145.125 67.3C143.745 65.74 142.725 63.73 142.065 61.27C141.465 58.81 141.165 55.57 141.165 51.55C141.165 47.53 141.855 43.69 143.235 40.03C144.615 36.37 146.565 33.22 149.085 30.58C154.245 25.06 161.085 22.3 169.605 22.3C172.665 22.3 175.305 22.81 177.525 23.83L192.915 22.3L186.255 57.4C186.075 58.12 185.985 59.14 185.985 60.46C185.985 61.78 186.375 62.86 187.155 63.7C187.995 64.54 189.015 65.02 190.215 65.14C189.615 67.18 188.205 68.8 185.985 70C183.825 71.2 181.515 71.8 179.055 71.8C176.595 71.8 174.525 71.32 172.845 70.36C171.225 69.46 170.175 68.23 169.695 66.67C168.735 68.17 167.235 69.4 165.195 70.36C163.155 71.32 160.755 71.8 157.995 71.8C155.295 71.8 152.835 71.44 150.615 70.72C148.395 70 146.565 68.86 145.125 67.3ZM164.115 30.76C163.455 31.84 162.825 33.31 162.225 35.17C161.625 36.97 160.815 40.33 159.795 45.25C158.835 50.11 158.355 54.28 158.355 57.76C158.355 61.24 158.625 63.49 159.165 64.51C159.705 65.53 160.455 66.04 161.415 66.04C163.335 66.04 164.985 65.14 166.365 63.34C167.805 61.48 168.795 58.93 169.335 55.69L174.105 29.32C172.845 28.24 171.465 27.7 169.965 27.7C168.525 27.7 167.355 27.94 166.455 28.42C165.615 28.9 164.835 29.68 164.115 30.76ZM224.678 38.41C225.518 36.19 225.938 34.12 225.938 32.2C225.938 28.66 224.498 26.89 221.618 26.89C220.118 26.89 218.738 27.58 217.478 28.96C216.278 30.28 215.678 31.78 215.678 33.46C215.678 34.66 216.158 35.74 217.118 36.7C218.498 38.02 220.958 39.76 224.498 41.92C228.038 44.08 230.468 46.06 231.788 47.86C233.168 49.6 233.858 51.7 233.858 54.16C233.858 56.56 233.258 58.87 232.058 61.09C230.918 63.31 229.298 65.2 227.198 66.76C222.698 70.12 216.848 71.8 209.648 71.8C205.748 71.8 202.298 70.78 199.298 68.74C196.298 66.76 194.798 64.6 194.798 62.26C194.798 59.92 195.638 58.06 197.318 56.68C199.058 55.3 201.188 54.61 203.708 54.61C206.228 54.61 208.268 55.09 209.828 56.05C209.048 58.03 208.658 59.68 208.658 61C208.658 64.96 210.338 66.94 213.698 66.94C215.138 66.94 216.338 66.49 217.298 65.59C218.258 64.69 218.738 63.46 218.738 61.9C218.738 58.84 216.158 55.69 210.998 52.45C206.798 49.69 204.218 47.77 203.258 46.69C201.638 44.77 200.828 42.61 200.828 40.21C200.828 37.81 201.398 35.47 202.538 33.19C203.678 30.91 205.298 28.96 207.398 27.34C211.778 23.98 217.778 22.3 225.398 22.3C229.298 22.3 232.388 23.08 234.668 24.64C237.008 26.2 238.178 28.3 238.178 30.94C238.178 33.58 237.368 35.65 235.748 37.15C234.188 38.65 231.968 39.4 229.088 39.4C227.108 39.4 225.638 39.07 224.678 38.41ZM286.808 60.01C286.808 62.65 288.158 64.36 290.858 65.14C290.198 67.36 288.578 69.07 285.998 70.27C283.838 71.29 281.558 71.8 279.158 71.8C276.818 71.8 275.018 71.47 273.758 70.81C272.558 70.21 271.628 69.4 270.968 68.38C269.888 66.82 269.348 64.57 269.348 61.63C269.348 59.89 269.828 56.62 270.788 51.82L272.048 44.98C273.068 39.76 273.578 36.19 273.578 34.27C273.578 30.91 272.648 29.23 270.788 29.23C268.448 29.23 266.528 30.94 265.028 34.36C264.428 35.68 263.918 37.33 263.498 39.31L257.378 70L239.288 71.8L251.978 7L270.068 5.2L269.348 8.8C267.668 18.04 266.108 24.22 264.668 27.34C268.028 23.98 272.798 22.3 278.978 22.3C285.518 22.3 289.388 24.46 290.588 28.78C291.008 30.16 291.218 31.45 291.218 32.65C291.218 33.85 291.158 34.93 291.038 35.89C290.978 36.79 290.798 38.08 290.498 39.76L289.328 46.24L287.258 56.41C286.958 57.79 286.808 58.99 286.808 60.01ZM319.739 65.05C317.879 69.55 313.979 71.8 308.039 71.8C304.979 71.8 302.489 70.75 300.569 68.65C298.949 66.79 298.139 64.93 298.139 63.07C298.139 58.21 299.249 51.04 301.469 41.56L304.799 24.1L323.069 22.3L317.579 50.74C316.559 55.18 316.049 58.18 316.049 59.74C316.049 63.16 317.279 64.93 319.739 65.05ZM306.419 11.59C306.419 9.25 307.379 7.45 309.299 6.19C311.279 4.93 313.679 4.3 316.499 4.3C319.319 4.3 321.569 4.93 323.249 6.19C324.989 7.45 325.859 9.25 325.859 11.59C325.859 13.93 324.899 15.7 322.979 16.9C321.119 18.1 318.779 18.7 315.959 18.7C313.139 18.7 310.829 18.1 309.029 16.9C307.289 15.7 306.419 13.93 306.419 11.59ZM347.027 71.8C333.827 71.8 327.227 65.59 327.227 53.17C327.227 44.35 329.657 37.09 334.517 31.39C339.677 25.33 346.727 22.3 355.667 22.3C362.147 22.3 367.037 23.8 370.337 26.8C373.637 29.8 375.287 34.45 375.287 40.75C375.287 50.35 372.707 57.94 367.547 63.52C362.507 69.04 355.667 71.8 347.027 71.8ZM349.367 32.65C348.647 34.27 347.987 36.31 347.387 38.77C346.847 41.17 346.217 44.29 345.497 48.13C344.777 51.97 344.417 56.26 344.417 61C344.417 62.56 344.657 63.85 345.137 64.87C345.677 65.89 346.637 66.4 348.017 66.4C349.397 66.4 350.507 66.07 351.347 65.41C352.247 64.75 353.027 63.64 353.687 62.08C354.887 59.32 355.967 55.39 356.927 50.29C357.887 45.13 358.397 41.44 358.457 39.22C358.577 37 358.637 35.08 358.637 33.46C358.637 31.78 358.397 30.4 357.917 29.32C357.437 28.24 356.507 27.7 355.127 27.7C353.807 27.7 352.697 28.12 351.797 28.96C350.897 29.8 350.087 31.03 349.367 32.65ZM418.651 71.8C411.391 71.8 407.761 68.98 407.761 63.34C407.821 61.78 408.091 59.68 408.571 57.04L410.191 48.76C411.811 40.96 412.621 36.19 412.621 34.45C412.621 30.97 411.601 29.23 409.561 29.23C406.141 29.23 403.531 33.7 401.731 42.64L396.421 70L378.331 71.8L387.691 24.01L402.451 22.3L401.011 31.12C403.831 25.24 409.561 22.3 418.201 22.3C422.401 22.3 425.371 23.2 427.111 25C428.911 26.74 429.811 29.59 429.811 33.55C429.811 37.27 428.851 43.48 426.931 52.18C426.031 56.08 425.581 58.78 425.581 60.28C425.581 61.72 425.971 62.86 426.751 63.7C427.591 64.54 428.611 65.02 429.811 65.14C429.211 67.18 427.861 68.8 425.761 70C423.721 71.2 421.351 71.8 418.651 71.8ZM477.957 22.3C473.097 22.3 468.897 21.49 465.357 19.87L462.477 34.45H479.847C479.847 37.63 479.037 40.24 477.417 42.28C475.857 44.26 473.637 45.25 470.757 45.25C467.637 45.25 464.637 44.68 461.757 43.54C461.157 43.3 460.827 43.15 460.767 43.09L455.637 70H436.017L447.447 10.6H487.587C487.587 14.26 486.717 17.14 484.977 19.24C483.297 21.28 480.957 22.3 477.957 22.3ZM506.856 65.05C504.996 69.55 501.096 71.8 495.156 71.8C492.156 71.8 489.696 70.75 487.776 68.65C486.216 66.91 485.436 65.05 485.436 63.07C485.436 58.57 486.486 51.4 488.586 41.56L495.156 7L513.426 5.2L504.696 50.74C503.676 55.18 503.166 58.18 503.166 59.74C503.166 63.16 504.396 64.93 506.856 65.05ZM550.976 54.79C552.476 55.81 553.226 57.46 553.226 59.74C553.226 61.96 552.656 63.79 551.516 65.23C550.376 66.67 548.876 67.87 547.016 68.83C543.176 70.81 539.186 71.8 535.046 71.8C530.906 71.8 527.606 71.35 525.146 70.45C522.746 69.55 520.736 68.26 519.116 66.58C515.936 63.4 514.346 58.9 514.346 53.08C514.346 44.02 516.806 36.73 521.726 31.21C527.006 25.27 534.236 22.3 543.416 22.3C549.116 22.3 553.376 23.5 556.196 25.9C558.296 27.7 559.346 30.07 559.346 33.01C559.346 43.57 550.226 48.85 531.986 48.85C531.746 50.41 531.626 51.85 531.626 53.17C531.626 55.93 532.226 57.85 533.426 58.93C534.686 59.95 536.456 60.46 538.736 60.46C541.016 60.46 543.356 59.95 545.756 58.93C548.216 57.85 549.956 56.47 550.976 54.79ZM532.616 44.98C536.876 44.98 540.236 43.66 542.696 41.02C545.156 38.5 546.386 35.23 546.386 31.21C546.386 29.83 546.116 28.78 545.576 28.06C545.096 27.28 544.346 26.89 543.326 26.89C542.306 26.89 541.346 27.1 540.446 27.52C539.606 27.88 538.736 28.72 537.836 30.04C535.616 33.04 533.876 38.02 532.616 44.98ZM574.396 70.27C572.476 71.29 570.196 71.8 567.556 71.8C564.916 71.8 562.876 71.14 561.436 69.82C559.996 68.44 559.276 66.46 559.276 63.88C559.276 61.24 560.176 58.66 561.976 56.14C563.836 53.56 566.116 51.55 568.816 50.11C571.576 48.67 573.916 47.53 575.836 46.69L570.166 33.64C569.146 31.42 567.676 30.31 565.756 30.31L565.036 30.4H564.766C565.126 28.3 566.536 26.44 568.996 24.82C571.456 23.14 574.096 22.3 576.916 22.3C581.476 22.3 584.806 24.58 586.906 29.14L587.626 30.58L591.496 40.12C593.116 39.4 594.256 38.38 594.916 37.06C595.636 35.68 595.996 33.67 595.996 31.03C595.996 28.33 595.276 26.14 593.836 24.46C596.116 23.02 598.756 22.3 601.756 22.3C607.156 22.3 609.856 24.91 609.856 30.13C609.856 35.83 606.286 40.33 599.146 43.63L593.746 46.15L598.606 58.66C599.566 61.18 600.916 62.98 602.656 64.06C603.376 64.54 604.156 64.81 604.996 64.87C603.196 67.81 600.346 69.94 596.446 71.26C595.246 71.62 593.836 71.8 592.216 71.8C590.596 71.8 588.856 71.23 586.996 70.09C585.136 69.01 583.876 67.6 583.216 65.86L578.266 52.99C574.906 54.49 573.226 57.97 573.226 63.43C573.226 65.95 573.616 68.23 574.396 70.27Z" fill="black"/>
<g clip-path="url(#clip1_6_2)">
<path opacity="0.3" d="M54.0167 33.875L64.1367 15.75H19.5867L28.2767 33.875H54.0167Z" fill="#A02BFF"/>
<path d="M54.0167 41.125C56.7667 41.125 59.1867 39.6388 60.4334 37.3913L73.56 13.865C73.869 13.3155 74.0276 12.6958 74.0199 12.0672C74.0123 11.4386 73.8388 10.8228 73.5165 10.2808C73.1943 9.73885 72.7345 9.28946 72.1826 8.97712C71.6307 8.66477 71.0059 8.50031 70.37 8.5H16.1034L12.6567 1.25H0.666687V8.5H8.00002L21.2 36.0138L16.25 44.8587C13.5734 49.7162 17.0934 55.625 22.6667 55.625H66.6667V48.375H22.6667L26.7 41.125H54.0167ZM19.5867 15.75H64.1367L54.0167 33.875H28.2767L19.5867 15.75ZM22.6667 59.25C18.6334 59.25 15.37 62.5125 15.37 66.5C15.37 70.4875 18.6334 73.75 22.6667 73.75C26.7 73.75 30 70.4875 30 66.5C30 62.5125 26.7 59.25 22.6667 59.25ZM59.3334 59.25C55.3 59.25 52.0367 62.5125 52.0367 66.5C52.0367 70.4875 55.3 73.75 59.3334 73.75C63.3667 73.75 66.6667 70.4875 66.6667 66.5C66.6667 62.5125 63.3667 59.25 59.3334 59.25Z" fill="#A02BFF"/>
</g>
</g>
<defs>
<clipPath id="clip0_6_2">
<rect width="611" height="75" fill="white"/>
</clipPath>
<clipPath id="clip1_6_2">
<rect width="88" height="87" fill="white" transform="translate(-3 -6)"/>
</clipPath>
</defs>
</svg>
